<svg width="46" height="15" viewBox="0 0 46 15" fill="none" xmlns="http://www.w3.org/2000/svg">
<path opacity="0.2" d="M4.5 12C6.98528 12 9 9.98528 9 7.5C9 5.01472 6.98528 3 4.5 3C2.01472 3 0 5.01472 0 7.5C0 9.98528 2.01472 12 4.5 12Z" fill="#E44343"/>
<path opacity="0.5" d="M20 13.5C23.3137 13.5 26 10.8137 26 7.5C26 4.18629 23.3137 1.5 20 1.5C16.6863 1.5 14 4.18629 14 7.5C14 10.8137 16.6863 13.5 20 13.5Z" fill="#E44343"/>
<path d="M38.5 15C42.6421 15 46 11.6421 46 7.5C46 3.35786 42.6421 0 38.5 0C34.3579 0 31 3.35786 31 7.5C31 11.6421 34.3579 15 38.5 15Z" fill="#E44343"/>
</svg>
