<svg width="18" height="18" viewBox="0 0 18 18" fill="none" xmlns="http://www.w3.org/2000/svg">
<path fill-rule="evenodd" clip-rule="evenodd" d="M18.001 0.75C18.001 0.55109 17.922 0.36032 17.7813 0.21967C17.6406 0.0790201 17.4499 0 17.251 0H8.25098C8.05208 0 7.86128 0.0790201 7.72058 0.21967C7.57998 0.36032 7.50098 0.55109 7.50098 0.75C7.50098 0.94891 7.57998 1.13968 7.72058 1.28033C7.86128 1.42098 8.05208 1.5 8.25098 1.5H15.4405L0.21995 16.719C0.15022 16.7887 0.0948999 16.8715 0.0571699 16.9626C0.0194299 17.0537 0 17.1514 0 17.25C0 17.3486 0.0194299 17.4463 0.0571699 17.5374C0.0948999 17.6285 0.15022 17.7113 0.21995 17.781C0.28968 17.8507 0.37247 17.906 0.46358 17.9438C0.55468 17.9815 0.65233 18.0009 0.75095 18.0009C0.84957 18.0009 0.94722 17.9815 1.03833 17.9438C1.12943 17.906 1.21222 17.8507 1.28195 17.781L16.501 2.5605V9.75C16.501 9.9489 16.58 10.1397 16.7206 10.2803C16.8613 10.421 17.0521 10.5 17.251 10.5C17.4499 10.5 17.6406 10.421 17.7813 10.2803C17.922 10.1397 18.001 9.9489 18.001 9.75V0.75Z" fill="white"/>
</svg>
