<svg width="15" height="10" viewBox="0 0 15 10" fill="none" xmlns="http://www.w3.org/2000/svg">
<path d="M6.3067 8.925L0.311688 2.0725C-0.395812 1.26625 0.179189 4.77441e-07 1.25294 4.77441e-07H13.2429C13.4833 -0.000209523 13.7185 0.0688603 13.9206 0.19893C14.1226 0.32899 14.2829 0.51455 14.3823 0.73337C14.4816 0.95219 14.5157 1.195 14.4806 1.43272C14.4455 1.67045 14.3426 1.89301 14.1842 2.07375L8.1892 8.9238C8.0719 9.058 7.9272 9.1656 7.7648 9.2394C7.6025 9.3131 7.4262 9.3512 7.2479 9.3512C7.06964 9.3512 6.8934 9.3131 6.73106 9.2394C6.56871 9.1656 6.42402 9.058 6.3067 8.9238V8.925Z" fill="#222222"/>
</svg>
