<svg width="50" height="50" viewBox="0 0 50 50" fill="none" xmlns="http://www.w3.org/2000/svg">
<path fill-rule="evenodd" clip-rule="evenodd" d="M50 25C50 38.8071 38.8071 50 25 50C11.1929 50 0 38.8071 0 25C0 11.1929 11.1929 0 25 0C38.8071 0 50 11.1929 50 25ZM18.1812 26.3237V29.8514C18.1812 29.8514 21.1727 33.1589 25.3817 33.1589C30.6757 33.1589 32.5815 29.8514 32.5815 29.8514V26.0242L26.3656 29.657C25.9219 29.9165 25.3739 29.9345 24.9137 29.7032L18.1812 26.3237ZM23.5685 21.6251C23.9864 21.9622 24.7601 22.1245 25.537 22.1245C26.6823 22.1245 27.6113 21.7584 27.6098 21.0105C27.6098 20.6946 27.4443 20.3089 27.1668 19.9671C27.2178 20.0988 27.2452 20.2266 27.2452 20.3442C27.2452 20.987 26.4479 21.3013 25.4617 21.3013C23.7457 21.3013 23.6932 20.1685 23.7198 20.0753C23.7198 20.0753 23.3725 20.392 23.302 20.7361L15.1889 23.5458L15.167 28.7684C15.6961 28.9597 16.074 29.4669 16.074 30.0611C16.074 30.4398 15.9196 30.7839 15.6711 31.0317C15.9117 31.8415 16.2645 33.5293 15.537 34.8291C15.3261 35.2054 14.9647 35.4727 14.5422 35.5699C14.1196 35.6671 13.6775 35.5762 13.3255 35.3253L13.1358 35.1889C12.7642 34.924 12.5321 34.5045 12.5031 34.0499C12.4741 33.5936 12.6505 33.1491 12.9845 32.8387C13.4015 32.4498 13.7535 31.9066 13.857 31.1516C13.5309 30.8976 13.3224 30.5041 13.3224 30.0611C13.3224 29.4646 13.7049 28.9527 14.2396 28.7653L14.2623 23.2957C13.7629 23.0456 13.4407 22.5423 13.4227 21.9849C13.4055 21.4268 13.6947 20.9039 14.1769 20.6232L24.5116 14.5994C24.9545 14.3407 25.4986 14.3235 25.9572 14.5532L36.6604 19.9091C37.1582 20.1584 37.4828 20.6616 37.4992 21.2198C37.5157 21.778 37.2264 22.3009 36.7443 22.5815L26.4095 28.6061C25.9682 28.8656 25.4225 28.8829 24.9639 28.6532L16.0952 24.2137L23.5685 21.6251Z" fill="#E44343"/>
</svg>
