<svg width="20" height="17" viewBox="0 0 20 17" fill="none" xmlns="http://www.w3.org/2000/svg">
<path d="M18.2949 0.14991C18.2949 0.14991 20.145 -0.585107 19.9909 1.19993C19.9395 1.93496 19.477 4.50752 19.1172 7.2901L17.8838 15.5328C17.8838 15.5328 17.781 16.7403 16.8559 16.9504C15.9308 17.1603 14.5432 16.2154 14.2862 16.0053C14.0807 15.8478 10.4318 13.4853 9.14695 12.3302C8.78719 12.0152 8.37605 11.3852 9.19833 10.6502L14.5946 5.40007C15.2113 4.77004 15.828 3.30001 13.2584 5.08505L6.06338 10.0727C6.06338 10.0727 5.2411 10.5977 3.69933 10.1252L0.358773 9.07515C0.358773 9.07515 -0.874661 8.28764 1.23245 7.50008C6.37176 5.03251 12.6931 2.51245 18.2949 0.14991Z" fill="#0088CC"/>
</svg>
