<svg width="40" height="40" viewBox="0 0 40 40" fill="none" xmlns="http://www.w3.org/2000/svg">
<path d="M33.125 6.87546C28.1469 6.87546 23.1838 4.54359 21.0544 1.20359C20.9415 1.02627 20.7856 0.880286 20.6013 0.779152C20.417 0.678019 20.2102 0.625 20 0.625C19.7898 0.625 19.583 0.678019 19.3987 0.779152C19.2144 0.880286 19.0585 1.02627 18.9456 1.20359C16.8162 4.54359 11.8525 6.87546 6.875 6.87546C6.54348 6.87546 6.22554 7.00716 5.99112 7.24158C5.7567 7.476 5.625 7.79394 5.625 8.12546V20.6255C5.625 29.2855 14.0219 35.4192 19.6969 36.838C19.8959 36.888 20.1041 36.888 20.3031 36.838C25.9781 35.4192 34.375 29.2855 34.375 20.6255V8.12546C34.375 7.79394 34.2433 7.476 34.0089 7.24158C33.7745 7.00716 33.4565 6.87546 33.125 6.87546ZM20 27.5005C18.2694 27.5005 16.5777 26.9873 15.1388 26.0258C13.6998 25.0644 12.5783 23.6978 11.9161 22.0989C11.2538 20.5001 11.0805 18.7408 11.4181 17.0434C11.7557 15.3461 12.5891 13.787 13.8128 12.5633C15.0365 11.3396 16.5956 10.5062 18.293 10.1686C19.9903 9.83097 21.7496 10.0043 23.3485 10.6665C24.9473 11.3288 26.3139 12.4503 27.2754 13.8892C28.2368 15.3282 28.75 17.0199 28.75 18.7505C28.75 21.0711 27.8281 23.2967 26.1872 24.9376C24.5462 26.5786 22.3206 27.5005 20 27.5005ZM24.6338 14.1167C24.8681 14.3511 24.9997 14.669 24.9997 15.0005C24.9997 15.3319 24.8681 15.6498 24.6338 15.8842L17.1337 23.3842C16.8994 23.6187 16.5815 23.7504 16.25 23.7505C16.183 23.7502 16.1162 23.745 16.05 23.7348C15.8544 23.7031 15.6692 23.6254 15.5095 23.5081C15.3499 23.3907 15.2205 23.2371 15.1319 23.0598L13.8819 20.5598C13.7335 20.2633 13.709 19.92 13.8138 19.6054C13.9186 19.2908 14.1441 19.0307 14.4406 18.8823C14.7372 18.734 15.0805 18.7095 15.3951 18.8143C15.7097 18.9191 15.9698 19.1445 16.1181 19.4411L16.5925 20.3905L22.8662 14.1167C23.1007 13.8824 23.4185 13.7507 23.75 13.7507C24.0815 13.7507 24.3993 13.8824 24.6338 14.1167Z" fill="white"/>
</svg>
