<svg width="40" height="40" viewBox="0 0 40 40" fill="none" xmlns="http://www.w3.org/2000/svg">
<g clip-path="url(#clip0_3_141)">
<path d="M34.9195 22.1891C34.5147 22.09 34.1264 22.123 33.7795 22.2387C33.1021 19.7438 31.6729 17.5629 29.7398 15.952C29.4424 14.6385 29.9133 13.4406 30.4585 12.565C30.8551 11.9289 30.3264 11.0945 29.5746 11.1936C27.2533 11.4828 25.9232 12.565 25.1797 13.5398C24.1967 13.2589 23.164 13.1019 22.0984 13.0772C22.5362 14.2502 22.784 15.5142 22.784 16.8442C22.784 22.7426 17.9844 27.5423 12.0777 27.5423C9.74809 27.5423 7.5837 26.7905 5.8241 25.5183C5.83236 29.2027 7.435 32.5071 9.9794 34.7789C10.822 35.5307 11.326 36.5964 11.326 37.7281V39.1903C11.326 39.6364 11.6894 39.9999 12.1355 39.9999H17.1004C17.5465 39.9999 17.91 39.6364 17.91 39.1903V37.9264C18.0257 37.9264 18.1331 37.9347 18.2487 37.9347H21.7679C21.7927 37.9347 21.8175 37.9347 21.834 37.9347V39.1903C21.834 39.6364 22.1975 39.9999 22.6436 39.9999H27.6085C28.0546 39.9999 28.4181 39.6364 28.4181 39.1903V38.009C28.4181 36.8194 28.955 35.7124 29.8555 34.9359C31.7225 33.3333 33.1103 31.1854 33.7712 28.7319C34.1182 28.8475 34.5065 28.8805 34.9112 28.7814C35.8365 28.5501 36.4726 27.691 36.4726 26.7327V24.2461C36.4808 23.2878 35.853 22.4121 34.9195 22.1891ZM28.7816 22.3956C28.1041 22.3956 27.5507 21.8421 27.5507 21.1647C27.5507 20.4873 28.1041 19.9338 28.7816 19.9338C29.459 19.9338 30.0124 20.4873 30.0124 21.1647C30.0124 21.8421 29.459 22.3956 28.7816 22.3956Z" fill="white"/>
<path d="M21.4705 11.4002C23.5936 10.4915 25.0806 8.38496 25.0806 5.93969C25.0806 2.66006 22.4205 0 19.1409 0C15.8612 0 13.2012 2.66006 13.2012 5.93969C13.2012 5.97274 13.2094 6.00578 13.2094 6.03883C16.7369 6.40231 19.7687 8.46758 21.4705 11.4002Z" fill="white"/>
<path d="M12.0694 25.3778C16.7864 25.3778 20.6113 21.553 20.6113 16.8359C20.6113 12.1188 16.7864 8.29395 12.0694 8.29395C9.60759 8.29395 7.39364 9.33484 5.8323 10.9953C4.40314 12.5236 3.52747 14.5724 3.52747 16.8276C3.53573 21.5612 7.35232 25.3778 12.0694 25.3778ZM9.08715 20.2229C9.1615 19.942 9.24411 19.6612 9.32672 19.3803C9.42585 19.0581 9.51673 19.0168 9.81412 19.1738C10.318 19.4381 10.855 19.5868 11.425 19.6529C11.7885 19.6942 12.1437 19.6612 12.4824 19.5125C13.1103 19.2399 13.2094 18.5129 12.6807 18.075C12.499 17.9264 12.2924 17.819 12.0777 17.7198C11.5242 17.4803 10.9541 17.2902 10.4337 16.9846C9.59108 16.4807 9.05411 15.7867 9.1202 14.7624C9.19455 13.6058 9.84717 12.8788 10.9128 12.4906C11.3507 12.3336 11.3507 12.3336 11.3589 11.8793C11.3589 11.7223 11.3589 11.5653 11.3589 11.4166C11.3672 11.0697 11.425 11.0119 11.772 11.0036C11.8794 11.0036 11.9868 11.0036 12.0942 11.0036C12.8294 11.0036 12.8294 11.0036 12.8294 11.7388C12.8294 12.2593 12.8294 12.2593 13.3499 12.3419C13.7464 12.3997 14.1264 12.5236 14.4899 12.6806C14.6881 12.7715 14.7708 12.9119 14.7047 13.1267C14.6138 13.4406 14.5229 13.7628 14.4238 14.0767C14.3247 14.3741 14.2338 14.4154 13.9446 14.275C13.3746 13.9941 12.7716 13.8784 12.1355 13.9197C11.9703 13.928 11.805 13.9528 11.6563 14.0189C11.1111 14.2584 11.0202 14.8615 11.4829 15.2332C11.7142 15.4233 11.9868 15.5554 12.2677 15.6711C12.7551 15.8693 13.2425 16.0676 13.6968 16.3154C15.159 17.125 15.5556 18.9672 14.5229 20.2147C14.1512 20.669 13.6638 20.9747 13.102 21.1234C12.8542 21.1895 12.7468 21.3216 12.7551 21.5777C12.7633 21.8256 12.7551 22.0817 12.7551 22.3378C12.7551 22.5608 12.6394 22.6847 12.4164 22.6847C12.1437 22.693 11.8711 22.693 11.5985 22.6847C11.3589 22.6765 11.2515 22.5443 11.2433 22.313C11.2433 22.1312 11.2433 21.9412 11.235 21.7595C11.2268 21.3547 11.2185 21.3382 10.8302 21.2721C10.3263 21.1895 9.83891 21.0821 9.38455 20.859C9.02106 20.6855 8.98802 20.5947 9.08715 20.2229Z" fill="white"/>
</g>
<defs>
<clipPath id="clip0_3_141">
<rect width="40" height="40" fill="white"/>
</clipPath>
</defs>
</svg>
