<svg width="40" height="40" viewBox="0 0 40 40" fill="none" xmlns="http://www.w3.org/2000/svg">
<mask id="mask0_3_130" style="mask-type:luminance" maskUnits="userSpaceOnUse" x="0" y="0" width="40" height="40">
<path d="M40 0H0V40H40V0Z" fill="white"/>
</mask>
<g mask="url(#mask0_3_130)">
<path d="M24.9082 22.6025C24.4506 22.6025 24.1085 22.9393 23.9451 23.1402C23.58 23.5893 23.3704 24.234 23.3704 24.9089C23.3704 25.5837 23.58 26.2284 23.9451 26.6776C24.1085 26.8784 24.4506 27.2153 24.9082 27.2153C25.3657 27.2153 25.7078 26.8784 25.8713 26.6776C26.2363 26.2284 26.446 25.5837 26.446 24.9089C26.446 24.234 26.2363 23.5893 25.8713 23.1402C25.708 22.9392 25.3657 22.6025 24.9082 22.6025Z" fill="white"/>
<path d="M15.0918 17.398C15.5493 17.398 15.8914 17.0611 16.0549 16.8603C16.42 16.4111 16.6296 15.7665 16.6296 15.0916C16.6296 14.4166 16.42 13.7721 16.0549 13.3229C15.8914 13.1221 15.5493 12.7852 15.0918 12.7852C14.6342 12.7852 14.2921 13.1221 14.1287 13.3229C13.7635 13.7721 13.554 14.4166 13.554 15.0916C13.554 15.7665 13.7635 16.4111 14.1287 16.8603C14.292 17.0612 14.6342 17.398 15.0918 17.398Z" fill="white"/>
<path d="M39.4825 18.9607L34.586 15.2605L36.3727 9.38734C36.4917 8.99641 36.4204 8.57246 36.1802 8.24193C35.9401 7.91149 35.5585 7.71285 35.1501 7.70532L29.012 7.5933L27.0106 1.78851C26.8774 1.40193 26.5702 1.10034 26.1813 0.974079C25.7928 0.847728 25.3669 0.911312 25.0316 1.14569L19.9998 4.66628L14.968 1.14551C14.633 0.911221 14.2073 0.847547 13.8184 0.973898C13.4294 1.10025 13.1225 1.40184 12.9891 1.78833L10.9878 7.59303L4.84968 7.70514C4.44133 7.71267 4.05992 7.91122 3.81973 8.24175C3.57955 8.57227 3.50808 8.99632 3.62699 9.38716L5.41395 15.2603L0.517467 18.9607C0.191477 19.2069 0 19.5919 0 20.0002C0 20.4086 0.191477 20.7935 0.517467 21.0398L5.41404 24.74L3.62726 30.613C3.50835 31.004 3.57982 31.4279 3.82001 31.7585C4.06019 32.0889 4.44169 32.2875 4.84995 32.2951L10.9881 32.4072L12.9894 38.2119C13.1226 38.5985 13.4297 38.9001 13.8185 39.0263C14.2072 39.1528 14.633 39.0891 14.9681 38.8546L19.9999 35.334L25.0319 38.8547C25.2535 39.0097 25.5148 39.0901 25.7789 39.0901C25.9139 39.0901 26.0498 39.0692 26.1815 39.0263C26.5702 38.9 26.8774 38.5984 27.0106 38.2119L29.0118 32.4072L35.1502 32.295C35.5586 32.2874 35.94 32.0889 36.1801 31.7584C36.4203 31.4278 36.4918 31.0039 36.3728 30.613L34.5859 24.74L39.4824 21.0397C39.8084 20.7934 39.9999 20.4086 39.9999 20.0001C39.9999 19.5917 39.8085 19.2068 39.4825 18.9607ZM15.0917 10.9763C16.9403 10.9763 18.4388 12.8189 18.4388 15.0919C18.4388 17.3651 16.9403 19.2076 15.0917 19.2076C13.2432 19.2076 11.7447 17.3651 11.7447 15.0919C11.7446 12.8189 13.2432 10.9763 15.0917 10.9763ZM14.8789 29.0417C14.6697 29.3328 14.3304 29.5065 13.9714 29.5065C13.7373 29.5065 13.5126 29.434 13.3217 29.2968C12.822 28.9379 12.7076 28.2394 13.0666 27.7397L25.1212 10.9585C25.3303 10.6675 25.6696 10.4937 26.0287 10.4937C26.2627 10.4937 26.4874 10.5662 26.6783 10.7034C27.178 11.0623 27.2924 11.7608 26.9334 12.2605L14.8789 29.0417ZM24.9083 29.024C23.0597 29.024 21.5612 27.1815 21.5612 24.9083C21.5612 22.6353 23.0597 20.7928 24.9083 20.7928C26.7568 20.7928 28.2553 22.6353 28.2553 24.9083C28.2554 27.1814 26.7568 29.024 24.9083 29.024Z" fill="white"/>
</g>
</svg>
